<mxfile host="app.diagrams.net" modified="2022-04-05T05:14:36.880Z" agent="5.0 (Windows NT 10.0; Win64; x64) AppleWebKit/537.36 (KHTML, like Gecko) Chrome/100.0.4896.60 Safari/537.36" etag="qDzg3KmfCEM31rPuPFbJ" version="17.4.0" type="github">
  <diagram id="HipqOI7N-YpQ7gZf3AqM" name="Page-1">
    <mxGraphModel dx="2204" dy="1896" grid="1" gridSize="10" guides="1" tooltips="1" connect="1" arrows="1" fold="1" page="1" pageScale="1" pageWidth="827" pageHeight="1169" math="0" shadow="0">
      <root>
        <mxCell id="0" />
        <mxCell id="1" parent="0" />
        <mxCell id="W3I0AFqOudHmus0ZoI7s-26" style="edgeStyle=none;rounded=0;orthogonalLoop=1;jettySize=auto;html=1;" edge="1" parent="1" source="W3I0AFqOudHmus0ZoI7s-5" target="W3I0AFqOudHmus0ZoI7s-9">
          <mxGeometry relative="1" as="geometry" />
        </mxCell>
        <mxCell id="W3I0AFqOudHmus0ZoI7s-34" style="edgeStyle=none;rounded=0;orthogonalLoop=1;jettySize=auto;html=1;entryX=0;entryY=0.667;entryDx=0;entryDy=0;entryPerimeter=0;" edge="1" parent="1" source="W3I0AFqOudHmus0ZoI7s-5" target="W3I0AFqOudHmus0ZoI7s-10">
          <mxGeometry relative="1" as="geometry" />
        </mxCell>
        <mxCell id="W3I0AFqOudHmus0ZoI7s-5" value="User&amp;nbsp;" style="shape=umlActor;verticalLabelPosition=bottom;verticalAlign=top;html=1;" vertex="1" parent="1">
          <mxGeometry x="-20" y="150" width="30" height="60" as="geometry" />
        </mxCell>
        <mxCell id="W3I0AFqOudHmus0ZoI7s-6" value="Quan Ly Profile" style="ellipse;whiteSpace=wrap;html=1;" vertex="1" parent="1">
          <mxGeometry x="260" width="110" height="60" as="geometry" />
        </mxCell>
        <mxCell id="W3I0AFqOudHmus0ZoI7s-7" style="rounded=0;orthogonalLoop=1;jettySize=auto;html=1;entryX=0.048;entryY=0.833;entryDx=0;entryDy=0;entryPerimeter=0;" edge="1" parent="1" source="W3I0AFqOudHmus0ZoI7s-5" target="W3I0AFqOudHmus0ZoI7s-6">
          <mxGeometry relative="1" as="geometry" />
        </mxCell>
        <mxCell id="W3I0AFqOudHmus0ZoI7s-9" value="Quan Ly Status" style="ellipse;whiteSpace=wrap;html=1;" vertex="1" parent="1">
          <mxGeometry x="270" y="150" width="110" height="60" as="geometry" />
        </mxCell>
        <mxCell id="W3I0AFqOudHmus0ZoI7s-10" value="Quan Ly Tin Nhan" style="ellipse;whiteSpace=wrap;html=1;" vertex="1" parent="1">
          <mxGeometry x="270" y="400" width="110" height="60" as="geometry" />
        </mxCell>
        <mxCell id="W3I0AFqOudHmus0ZoI7s-11" value="Tao moi Profile" style="ellipse;whiteSpace=wrap;html=1;" vertex="1" parent="1">
          <mxGeometry x="130" y="-100" width="110" height="60" as="geometry" />
        </mxCell>
        <mxCell id="W3I0AFqOudHmus0ZoI7s-12" value="Sua Profile" style="ellipse;whiteSpace=wrap;html=1;" vertex="1" parent="1">
          <mxGeometry x="370" y="-100" width="110" height="60" as="geometry" />
        </mxCell>
        <mxCell id="W3I0AFqOudHmus0ZoI7s-13" value="Them Status" style="ellipse;whiteSpace=wrap;html=1;" vertex="1" parent="1">
          <mxGeometry x="150" y="220" width="110" height="60" as="geometry" />
        </mxCell>
        <mxCell id="W3I0AFqOudHmus0ZoI7s-14" value="Xoa Status" style="ellipse;whiteSpace=wrap;html=1;" vertex="1" parent="1">
          <mxGeometry x="390" y="230" width="110" height="60" as="geometry" />
        </mxCell>
        <mxCell id="W3I0AFqOudHmus0ZoI7s-15" value="Sua Status" style="ellipse;whiteSpace=wrap;html=1;" vertex="1" parent="1">
          <mxGeometry x="270" y="270" width="110" height="60" as="geometry" />
        </mxCell>
        <mxCell id="W3I0AFqOudHmus0ZoI7s-17" value="Gui Tin Nhan" style="ellipse;whiteSpace=wrap;html=1;" vertex="1" parent="1">
          <mxGeometry x="110" y="520" width="110" height="60" as="geometry" />
        </mxCell>
        <mxCell id="W3I0AFqOudHmus0ZoI7s-38" value="" style="edgeStyle=none;rounded=0;orthogonalLoop=1;jettySize=auto;html=1;" edge="1" parent="1" source="W3I0AFqOudHmus0ZoI7s-18" target="W3I0AFqOudHmus0ZoI7s-10">
          <mxGeometry relative="1" as="geometry" />
        </mxCell>
        <mxCell id="W3I0AFqOudHmus0ZoI7s-18" value="Xoa Tin Nhan" style="ellipse;whiteSpace=wrap;html=1;" vertex="1" parent="1">
          <mxGeometry x="270" y="520" width="110" height="60" as="geometry" />
        </mxCell>
        <mxCell id="W3I0AFqOudHmus0ZoI7s-19" value="Thu hoi Tin Nhan" style="ellipse;whiteSpace=wrap;html=1;" vertex="1" parent="1">
          <mxGeometry x="430" y="520" width="110" height="60" as="geometry" />
        </mxCell>
        <mxCell id="W3I0AFqOudHmus0ZoI7s-20" value="Dang Nhap" style="ellipse;whiteSpace=wrap;html=1;" vertex="1" parent="1">
          <mxGeometry x="610" y="150" width="110" height="60" as="geometry" />
        </mxCell>
        <mxCell id="W3I0AFqOudHmus0ZoI7s-41" style="edgeStyle=none;rounded=0;orthogonalLoop=1;jettySize=auto;html=1;" edge="1" parent="1" source="W3I0AFqOudHmus0ZoI7s-21" target="W3I0AFqOudHmus0ZoI7s-20">
          <mxGeometry relative="1" as="geometry" />
        </mxCell>
        <mxCell id="W3I0AFqOudHmus0ZoI7s-21" value="adminFB" style="shape=umlActor;verticalLabelPosition=bottom;verticalAlign=top;html=1;" vertex="1" parent="1">
          <mxGeometry x="820" y="150" width="40" height="60" as="geometry" />
        </mxCell>
        <mxCell id="W3I0AFqOudHmus0ZoI7s-25" value="Tai khoan hoac mat khau sai" style="ellipse;whiteSpace=wrap;html=1;" vertex="1" parent="1">
          <mxGeometry x="610" width="110" height="60" as="geometry" />
        </mxCell>
        <mxCell id="W3I0AFqOudHmus0ZoI7s-28" value="" style="endArrow=block;endSize=16;endFill=0;html=1;rounded=0;exitX=0.5;exitY=1;exitDx=0;exitDy=0;entryX=1;entryY=0;entryDx=0;entryDy=0;" edge="1" parent="1" source="W3I0AFqOudHmus0ZoI7s-12" target="W3I0AFqOudHmus0ZoI7s-6">
          <mxGeometry width="160" relative="1" as="geometry">
            <mxPoint x="370" as="sourcePoint" />
            <mxPoint x="530" as="targetPoint" />
          </mxGeometry>
        </mxCell>
        <mxCell id="W3I0AFqOudHmus0ZoI7s-30" value="" style="endArrow=block;endSize=16;endFill=0;html=1;rounded=0;entryX=0;entryY=0;entryDx=0;entryDy=0;exitX=0.623;exitY=1.045;exitDx=0;exitDy=0;exitPerimeter=0;" edge="1" parent="1" source="W3I0AFqOudHmus0ZoI7s-11" target="W3I0AFqOudHmus0ZoI7s-6">
          <mxGeometry width="160" relative="1" as="geometry">
            <mxPoint x="200" y="-50" as="sourcePoint" />
            <mxPoint x="141.16999999999993" y="0.01999999999998181" as="targetPoint" />
          </mxGeometry>
        </mxCell>
        <mxCell id="W3I0AFqOudHmus0ZoI7s-31" value="" style="endArrow=block;endSize=16;endFill=0;html=1;rounded=0;exitX=0.5;exitY=0;exitDx=0;exitDy=0;" edge="1" parent="1" source="W3I0AFqOudHmus0ZoI7s-14" target="W3I0AFqOudHmus0ZoI7s-9">
          <mxGeometry width="160" relative="1" as="geometry">
            <mxPoint x="471.0399999999998" y="220" as="sourcePoint" />
            <mxPoint x="400.0013911464328" y="268.8253308986782" as="targetPoint" />
          </mxGeometry>
        </mxCell>
        <mxCell id="W3I0AFqOudHmus0ZoI7s-32" value="" style="endArrow=block;endSize=16;endFill=0;html=1;rounded=0;exitX=0.5;exitY=0;exitDx=0;exitDy=0;entryX=0.5;entryY=1;entryDx=0;entryDy=0;" edge="1" parent="1" source="W3I0AFqOudHmus0ZoI7s-15" target="W3I0AFqOudHmus0ZoI7s-9">
          <mxGeometry width="160" relative="1" as="geometry">
            <mxPoint x="481.03999999999974" y="230" as="sourcePoint" />
            <mxPoint x="384.1405427010709" y="203.4740197728745" as="targetPoint" />
          </mxGeometry>
        </mxCell>
        <mxCell id="W3I0AFqOudHmus0ZoI7s-33" value="" style="endArrow=block;endSize=16;endFill=0;html=1;rounded=0;exitX=1;exitY=0;exitDx=0;exitDy=0;entryX=0;entryY=1;entryDx=0;entryDy=0;" edge="1" parent="1" source="W3I0AFqOudHmus0ZoI7s-13" target="W3I0AFqOudHmus0ZoI7s-9">
          <mxGeometry width="160" relative="1" as="geometry">
            <mxPoint x="279.9999999999998" y="250" as="sourcePoint" />
            <mxPoint x="279.9999999999998" y="190" as="targetPoint" />
          </mxGeometry>
        </mxCell>
        <mxCell id="W3I0AFqOudHmus0ZoI7s-35" value="" style="endArrow=block;endSize=16;endFill=0;html=1;rounded=0;exitX=0.5;exitY=0;exitDx=0;exitDy=0;entryX=0;entryY=1;entryDx=0;entryDy=0;" edge="1" parent="1" source="W3I0AFqOudHmus0ZoI7s-17" target="W3I0AFqOudHmus0ZoI7s-10">
          <mxGeometry width="160" relative="1" as="geometry">
            <mxPoint x="169.99999999999977" y="460" as="sourcePoint" />
            <mxPoint x="169.99999999999977" y="400" as="targetPoint" />
          </mxGeometry>
        </mxCell>
        <mxCell id="W3I0AFqOudHmus0ZoI7s-36" value="" style="endArrow=block;endSize=16;endFill=0;html=1;rounded=0;exitX=0.5;exitY=0;exitDx=0;exitDy=0;entryX=0.5;entryY=1;entryDx=0;entryDy=0;" edge="1" parent="1" source="W3I0AFqOudHmus0ZoI7s-18" target="W3I0AFqOudHmus0ZoI7s-10">
          <mxGeometry width="160" relative="1" as="geometry">
            <mxPoint x="174.99999999999977" y="470" as="sourcePoint" />
            <mxPoint x="296.0386088535622" y="461.1746691013245" as="targetPoint" />
          </mxGeometry>
        </mxCell>
        <mxCell id="W3I0AFqOudHmus0ZoI7s-40" value="" style="endArrow=block;endSize=16;endFill=0;html=1;rounded=0;exitX=0.5;exitY=0;exitDx=0;exitDy=0;entryX=1;entryY=1;entryDx=0;entryDy=0;" edge="1" parent="1" source="W3I0AFqOudHmus0ZoI7s-19" target="W3I0AFqOudHmus0ZoI7s-10">
          <mxGeometry width="160" relative="1" as="geometry">
            <mxPoint x="429.9999999999998" y="490" as="sourcePoint" />
            <mxPoint x="429.9999999999998" y="430" as="targetPoint" />
          </mxGeometry>
        </mxCell>
        <mxCell id="W3I0AFqOudHmus0ZoI7s-42" value="Include" style="endArrow=block;endSize=16;endFill=0;html=1;rounded=0;exitX=1;exitY=0.5;exitDx=0;exitDy=0;entryX=0;entryY=1;entryDx=0;entryDy=0;dashed=1;" edge="1" parent="1" source="W3I0AFqOudHmus0ZoI7s-10" target="W3I0AFqOudHmus0ZoI7s-20">
          <mxGeometry width="160" relative="1" as="geometry">
            <mxPoint x="380" y="400" as="sourcePoint" />
            <mxPoint x="540" y="400" as="targetPoint" />
          </mxGeometry>
        </mxCell>
        <mxCell id="W3I0AFqOudHmus0ZoI7s-43" value="Include" style="endArrow=block;endSize=16;endFill=0;html=1;rounded=0;exitX=1;exitY=0.5;exitDx=0;exitDy=0;dashed=1;" edge="1" parent="1" source="W3I0AFqOudHmus0ZoI7s-9" target="W3I0AFqOudHmus0ZoI7s-20">
          <mxGeometry width="160" relative="1" as="geometry">
            <mxPoint x="370" y="174.38" as="sourcePoint" />
            <mxPoint x="584.31" y="100.00000000000011" as="targetPoint" />
          </mxGeometry>
        </mxCell>
        <mxCell id="W3I0AFqOudHmus0ZoI7s-44" value="Include" style="endArrow=block;endSize=16;endFill=0;html=1;rounded=0;exitX=1;exitY=0.5;exitDx=0;exitDy=0;dashed=1;entryX=0;entryY=0;entryDx=0;entryDy=0;" edge="1" parent="1" source="W3I0AFqOudHmus0ZoI7s-6" target="W3I0AFqOudHmus0ZoI7s-20">
          <mxGeometry width="160" relative="1" as="geometry">
            <mxPoint x="370" y="29.409999999999997" as="sourcePoint" />
            <mxPoint x="599.9999999999966" y="29.409999999999997" as="targetPoint" />
            <Array as="points" />
          </mxGeometry>
        </mxCell>
        <mxCell id="W3I0AFqOudHmus0ZoI7s-45" value="Extends" style="endArrow=block;endSize=16;endFill=0;html=1;rounded=0;dashed=1;entryX=0.5;entryY=0;entryDx=0;entryDy=0;exitX=0.5;exitY=1;exitDx=0;exitDy=0;" edge="1" parent="1" source="W3I0AFqOudHmus0ZoI7s-25" target="W3I0AFqOudHmus0ZoI7s-20">
          <mxGeometry width="160" relative="1" as="geometry">
            <mxPoint x="630" y="50" as="sourcePoint" />
            <mxPoint x="790" y="50" as="targetPoint" />
          </mxGeometry>
        </mxCell>
        <mxCell id="W3I0AFqOudHmus0ZoI7s-46" value="" style="line;strokeWidth=1;fillColor=none;align=left;verticalAlign=middle;spacingTop=-1;spacingLeft=3;spacingRight=3;rotatable=0;labelPosition=right;points=[];portConstraint=eastwest;" vertex="1" parent="1">
          <mxGeometry x="430" y="320" width="40" height="8" as="geometry" />
        </mxCell>
        <mxCell id="W3I0AFqOudHmus0ZoI7s-47" value="" style="line;strokeWidth=1;fillColor=none;align=left;verticalAlign=middle;spacingTop=-1;spacingLeft=3;spacingRight=3;rotatable=0;labelPosition=right;points=[];portConstraint=eastwest;" vertex="1" parent="1">
          <mxGeometry x="430" y="320" width="40" height="8" as="geometry" />
        </mxCell>
        <mxCell id="W3I0AFqOudHmus0ZoI7s-48" value="" style="line;strokeWidth=1;fillColor=none;align=left;verticalAlign=middle;spacingTop=-1;spacingLeft=3;spacingRight=3;rotatable=0;labelPosition=right;points=[];portConstraint=eastwest;" vertex="1" parent="1">
          <mxGeometry x="430" y="-10" width="40" height="8" as="geometry" />
        </mxCell>
        <mxCell id="W3I0AFqOudHmus0ZoI7s-49" value="" style="line;strokeWidth=1;fillColor=#6d8764;align=left;verticalAlign=middle;spacingTop=-1;spacingLeft=3;spacingRight=3;rotatable=0;labelPosition=right;points=[];portConstraint=eastwest;fontColor=#ffffff;strokeColor=#3A5431;" vertex="1" parent="1">
          <mxGeometry x="430" y="-10" width="40" height="8" as="geometry" />
        </mxCell>
      </root>
    </mxGraphModel>
  </diagram>
</mxfile>
